<?xml version="1.0" encoding="utf-8"?>
<!-- Generator: Adobe Illustrator 13.0.0, SVG Export Plug-In . SVG Version: 6.00 Build 14948)  -->
<!DOCTYPE svg PUBLIC "-//W3C//DTD SVG 1.0//EN" "http://www.w3.org/TR/2001/REC-SVG-20010904/DTD/svg10.dtd">
<svg version="1.0" id="Layer_1" xmlns="http://www.w3.org/2000/svg" xmlns:xlink="http://www.w3.org/1999/xlink" x="0px" y="0px"
	 width="200px" height="160px" viewBox="0 0 200 160" enable-background="new 0 0 200 160" xml:space="preserve">
<path d="M41.351,147.497c0,3.468-2.682,5.768-8.063,6.884c-2.716,0.529-7.111,0.814-13.188,0.814c-4.966,0-8.706-0.285-11.199-0.856
	c-4.168-0.957-6.397-2.736-7.908-6.842l5.516-0.008c0.902,1.511,3.329,2.477,7.283,2.862c1.377,0.143,4.332,0.21,8.89,0.21
	c8.588,0,12.887-1.024,12.887-3.09c0-1.494-2.237-2.442-6.699-2.862c-1.478-0.143-4.416-0.21-8.828-0.21
	c-12.748,0-19.128-2.577-19.128-7.698c0-3.366,2.527-5.625,7.564-6.758c2.795-0.646,7.018-0.966,12.647-0.966
	c5.44,0,9.377,0.261,11.812,0.781c4.487,0.948,8.349,3.257,8.349,7.102l-5.528-0.075c-0.793-1.553-3.182-2.544-7.169-2.964
	c-1.385-0.15-4.361-0.227-8.924-0.227c-8.638,0-12.966,1.041-12.966,3.115c0,1.485,2.17,2.435,6.502,2.854
	c1.544,0.144,4.428,0.219,8.639,0.219C34.845,139.782,41.351,142.351,41.351,147.497"/>
<path d="M83.532,136.692c0,5.138-6.473,7.698-19.409,7.698H52.785v10.797h-5.789v-26.201h17.151
	C77.068,128.986,83.532,131.547,83.532,136.692 M77.748,136.692c0-2.064-4.135-3.098-12.404-3.098H52.785v6.179h14.742
	C74.344,139.773,77.748,138.75,77.748,136.692"/>
<path d="M114.774,155.188l-3.35-4.617H88.049l-3.362,4.617h-6.586l18.872-26.201h5.524l18.885,26.201H114.774z M99.722,134.309
	l-8.391,11.636h16.802L99.722,134.309z"/>
<path d="M141.597,155.188c-13.474,0-20.215-4.366-20.215-13.088c0-8.748,6.741-13.113,20.215-13.113
	c9.252,0,18.134,1.838,18.671,8.798l-5.18,0.017c-1.335-1.729-3.316-2.888-5.969-3.525c-1.847-0.454-4.349-0.681-7.522-0.681
	c-4.65,0-8.042,0.479-10.166,1.436c-2.846,1.293-4.265,3.636-4.265,7.035c0,3.426,1.436,5.776,4.307,7.035
	c2.115,0.982,5.49,1.461,10.124,1.461c3.174,0,5.676-0.235,7.522-0.688c2.652-0.604,4.634-1.788,5.969-3.509l5.238-0.076
	C159.193,152.996,150.849,155.188,141.597,155.188"/>
<polygon points="164.826,155.188 164.826,128.986 197.542,128.986 197.542,133.595 170.61,133.595 170.61,139.773 197.542,139.773 
	197.542,144.391 170.61,144.391 170.61,150.562 197.542,150.562 197.542,155.188 "/>
<path d="M176.765,46.777c-5.146-27.095-50.808-6.792-70.074,2.569c-16.346,7.938-20.052-3.702-16.346-8.647
	c9.101-12.147,38.098-30.596,66.565-32.229c28.492-1.633,39.021,14.813,41.346,24.295c6.993,28.72-17.756,55.814-20.325,58.392
	c-2.568,2.569-6.011,3.141-5.138,2.091c10.041-12.135,19.847-30.827,18.923-39.465c-0.327-3.06-18.688,46.71-112.583,68.672
	c-1.885,0.437-3.644-1.881-2.338-2.107c10.565-1.805,39.986-12.585,58.388-23.591C178.938,70.581,176.765,46.777,176.765,46.777"/>
<path d="M84.296,105.396c17.874-5.196,46.488-22.313,45.354-30.109c-0.68-4.643-5.582-6.767-18.989-0.713
	c-14.478,6.515-47.659,28.707-64.559,20.916c-12.534-5.792-14.355-20.824,6.637-42.874C78.768,25.273,130.213,8,130.465,7.072
	c0.219-0.936,0.336-2.011-0.831-1.969c-3.249,0.181-48.268,14.209-77.625,35.23C22.718,61.3,17.983,78.091,17.623,76.756
	c-2.725-10.204,8.861-24.174,16.891-31.343c8.571-7.669,10.41-8.508,10.066-8.949c-0.953-1.192-3.446-0.533-5.251,0.957
	C36.301,39.901,5.491,56.788,4.623,83.678C4.476,88.118,6.058,128.155,84.296,105.396"/>
</svg>
